<?xml version="1.0" standalone="no"?>
<!DOCTYPE svg PUBLIC "-//W3C//DTD SVG 20010904//EN"
        "http://www.w3.org/TR/2001/REC-SVG-20010904/DTD/svg10.dtd">
<svg version="1.0" xmlns="http://www.w3.org/2000/svg"
     width="128.000000pt" height="128.000000pt" viewBox="0 0 128.000000 128.000000"
     preserveAspectRatio="xMidYMid meet">
    <metadata>
        Created by potrace 1.11, written by Peter Selinger 2001-2013
    </metadata>
    <g transform="translate(0.000000,128.000000) scale(0.100000,-0.100000)"
       fill="#000000" stroke="none">
        <path d="M525 1274 c-254 -65 -425 -219 -502 -454 -28 -86 -25 -283 5 -375 67
-199 225 -355 429 -421 74 -24 263 -27 343 -5 212 57 375 210 447 418 35 101
41 263 14 363 -56 209 -204 369 -411 445 -62 23 -95 28 -190 31 -63 1 -124 1
-135 -2z"/>
    </g>
</svg>
